<?xml version="1.0" encoding="utf-8"?>
<!-- Generator: Adobe Illustrator 25.1.0, SVG Export Plug-In . SVG Version: 6.00 Build 0)  -->
<svg version="1.1" xmlns="http://www.w3.org/2000/svg" xmlns:xlink="http://www.w3.org/1999/xlink" x="0px" y="0px"
	 viewBox="0 0 595.28 226.77" style="enable-background:new 0 0 595.28 226.77;" xml:space="preserve">
<style type="text/css">
	.st0{fill:#BE1E2D;}
	.st1{fill:#FFFFFF;}
	.st2{fill:#D1D3D4;}
	.st3{display:none;}
	.st4{fill:#90101C;}
	.st5{display:none;}
	.st6{display:inline;}
	.st7{fill:#FFF200;}
</style>
<g id="Layer_1">
	<rect y="0" class="st3" width="595.28" height="226.77"/>
	<g>
		<path class="st1" d="M128.96,54.15H46.67l13.6,28.74h19.02l10.53,0l0,0h0l-14.78,31.2l15.89,33.58l27.56-58.17
			c1.9-4.02,6.02-6.62,10.47-6.62h36.65l13.6-28.74h-35.15H128.96z"/>
		<path class="st1" d="M123.9,103.88l-5.63,11.85l-7.93,16.77l-2.85,6.01c-0.03,0.06-0.07,0.13-0.1,0.19l-0.2,0.43
			c-0.01,0.03-0.01,0.04-0.01,0.04l-2.92,6.17l-7.23,15.25l0.01-0.01l0,0.01l0.02-0.02l0.02-0.01l-0.02,0.06l5.68,11.99l8.49-9.38
			c5.31-5.87,12.83-9.21,20.73-9.21l13.6-28.74h-13.08c-1.24,0-2.47,0.08-3.68,0.24c0,0,0,0,0,0l0.04-0.05l0.49-0.54
			c0.66-0.73,1.35-1.42,2.08-2.06c0.12-0.11,0.24-0.21,0.37-0.31c0.24-0.21,0.49-0.42,0.74-0.63c0.12-0.1,0.24-0.18,0.36-0.28
			c0.27-0.21,0.54-0.42,0.81-0.62c0.05-0.04,0.11-0.07,0.16-0.11c4.7-3.35,10.36-5.2,16.23-5.2L163.68,87h-13.11
			C139.22,87,128.75,93.63,123.9,103.88z"/>
		<polygon class="st1" points="197.96,87.01 192.97,97.57 207.66,97.57 200.83,132.86 213.39,132.86 220.21,97.57 231.96,97.57 
			236.95,87.01 		"/>
		<path class="st1" d="M274.82,103.24c0.13-0.64,0.21-1.29,0.26-1.93c0.04-0.64,0.06-1.24,0.06-1.8c0-2.23-0.4-4.13-1.19-5.7
			c-0.79-1.57-1.93-2.85-3.41-3.86c-1.48-1.01-3.26-1.75-5.34-2.22c-2.08-0.47-4.43-0.71-7.05-0.71h-16.81l-8.95,45.84h11.78
			l2.9-14.94h6.31l4.77,14.94h12.68l-6.44-16.74c2.62-0.94,4.86-2.42,6.73-4.44S274.22,106.85,274.82,103.24z M262.85,103.18
			c-0.22,0.99-0.49,1.79-0.84,2.41c-0.34,0.62-0.82,1.12-1.42,1.48c-0.6,0.36-1.37,0.62-2.32,0.77s-2.08,0.22-3.41,0.22H249
			l2.19-11.07h5.79c2.06,0,3.58,0.3,4.57,0.9c0.99,0.6,1.48,1.67,1.48,3.22C263.04,101.72,262.98,102.4,262.85,103.18z"/>
		<path class="st1" d="M297.1,87.01l-24.98,45.84h12.75l4.96-10.04h14.87l1.09,10.04h12.49l-6.95-45.84H297.1z M294.4,113.22
			l7.79-15.32l1.61,15.32H294.4z"/>
		<polygon class="st1" points="358.91,87.01 353.76,113.61 340.82,87.01 330.97,87.01 322.02,132.86 333.8,132.86 338.89,106.59 
			351.58,132.86 361.62,132.86 370.57,87.01 		"/>
		<path class="st1" d="M394.32,105.49l-5.92-1.86c-1.07-0.35-1.86-0.72-2.35-1.13c-0.49-0.41-0.74-0.98-0.74-1.71
			c0-0.25,0.01-0.48,0.03-0.67c0.02-0.2,0.05-0.4,0.1-0.61c0.21-0.95,0.75-1.61,1.61-2c0.86-0.39,2.08-0.58,3.67-0.58
			c1.93,0,3.99,0.01,6.18,0.03c1.57,0.02,4.27,0.04,7.38,0.06l4.72-9.98c-2.45-0.02-4.54-0.05-5.57-0.06
			c-1.44-0.02-2.69-0.04-3.76-0.06c-1.08-0.02-2.07-0.03-3-0.03h-3.18c-2.67,0-5.14,0.18-7.44,0.54c-2.3,0.37-4.34,1.02-6.12,1.97
			c-1.78,0.94-3.27,2.22-4.47,3.83c-1.21,1.61-2.02,3.66-2.45,6.15c-0.26,1.37-0.39,2.64-0.39,3.8c0,1.24,0.18,2.4,0.52,3.47
			s0.9,2.04,1.68,2.94c0.01,0.01,0.02,0.02,0.03,0.03c0.36,0.41,0.78,0.81,1.26,1.19c0.55,0.44,1.18,0.86,1.89,1.25
			c1.31,0.73,2.93,1.4,4.86,2l5.54,1.67c1.07,0.35,1.88,0.74,2.41,1.19c0.54,0.45,0.81,1.09,0.81,1.9v0.49
			c0,0.15-0.02,0.33-0.07,0.54c-0.25,1.29-0.89,2.13-1.89,2.51c-1.01,0.39-2.59,0.58-4.74,0.58h-2.51c-1.03,0-2.19-0.01-3.48-0.03
			c-1.28-0.02-2.66-0.04-4.12-0.06c-0.88-0.01-1.79-0.02-3.44-0.03l-4.73,10c3.54,0.07,7.1,0.11,9.27,0.14
			c2.53,0.02,4.93,0.03,7.21,0.03c3.26,0,6.09-0.22,8.5-0.65c2.4-0.42,4.44-1.13,6.12-2.12c1.67-0.99,3-2.29,3.99-3.9
			c0.98-1.61,1.71-3.59,2.19-5.95c0.25-1.33,0.38-2.6,0.38-3.8c0-2.49-0.73-4.67-2.19-6.54
			C400.65,108.17,398.06,106.65,394.32,105.49z"/>
		<polygon class="st1" points="425.62,97.06 443.59,97.06 448.33,87.04 448.34,87.01 415.51,87.01 406.56,132.86 418.66,132.86 
			422.01,115.67 437.17,115.67 441.77,105.95 423.88,105.95 		"/>
		<polygon class="st1" points="464.83,87.01 452.27,87.01 443.32,132.86 473.04,132.86 478.03,122.3 457.94,122.3 		"/>
		<polygon class="st1" points="488.72,87.01 479.77,132.86 492.33,132.86 501.28,87.01 		"/>
		<polygon class="st1" points="548.6,87.01 534.82,87.01 525.04,99.83 519.95,87.01 506.69,87.01 516.34,108.39 495.35,132.86 
			509.13,132.86 521.17,118.18 527.23,132.86 541,132.86 529.99,109.49 		"/>
	</g>
</g>
<g id="Layer_3">
</g>
<g id="Layer_2" class="st5">
</g>
</svg>
