<?xml version="1.0" encoding="utf-8"?>
<!-- Generator: Adobe Illustrator 25.1.0, SVG Export Plug-In . SVG Version: 6.00 Build 0)  -->
<svg version="1.1" xmlns="http://www.w3.org/2000/svg" xmlns:xlink="http://www.w3.org/1999/xlink" x="0px" y="0px"
	 viewBox="0 0 425.2 425.2" style="enable-background:new 0 0 425.2 425.2;" xml:space="preserve">
<style type="text/css">
	.st0{fill:#BE1E2D;}
	.st1{fill:#FFFFFF;}
	.st2{fill:#D1D3D4;}
	.st3{display:none;}
	.st4{fill:#90101C;}
	.st5{display:none;}
	.st6{display:inline;}
	.st7{fill:#FFF200;}
</style>
<g id="Layer_1">
	<rect class="st3" width="425.2" height="425.2"/>
	<g>
		<g>
			<polygon class="st1" points="297.08,51.75 210.94,129.8 69.58,129.8 32.65,51.75 			"/>
		</g>
		<g>
			<path class="st1" d="M392.55,51.75l-36.93,78.05h-99.51c-12.1,0-23.27,7.05-28.44,17.98l-74.85,157.95l-43.15-91.19l47.46-100.17
				c18.02-38.05,56.88-62.61,98.97-62.61H392.55z"/>
		</g>
		<path class="st1" d="M350.37,140.95l-36.96,78.03c-21.44,0-41.91,9.11-56.32,25.02l-1.46,1.59l-86.08,95.05v0.04l-0.13,0.13
			l36.12-76.31l21.53-45.54l15.3-32.19c13.17-27.85,41.6-45.85,72.42-45.85H350.37z"/>
		<path class="st2" d="M282.1,225.73c-9.44,4.27-17.93,10.49-25.04,18.26l-1.44,1.61l-48.58,53.68l-37.47,41.36v0.06l-0.17,0.11
			l27.54-58.12c0,0,0-0.06,0.06-0.17l0.56-1.17c0.17-0.33,0.33-0.72,0.56-1.11c0.17-0.33,0.39-0.72,0.56-1.11
			C205.27,266.76,230.7,226.23,282.1,225.73z"/>
		<path class="st1" d="M301.15,244.94l-36.93,78.05c-21.46,0-41.88,9.07-56.29,25l-23.05,25.46l-15.41-32.56l0.1-0.24l8.37-17.66
			l15.27-32.19c11.76-24.8,35.58-41.8,62.44-45.19c3.29-0.44,6.63-0.66,10-0.66H301.15z"/>
		<path class="st2" d="M157.14,114.37l-7.33,15.43l-28.59-0.01c0,0,12.93-76.38,130.96-77.99C211.6,53.3,174.63,77.45,157.14,114.37
			z"/>
	</g>
</g>
<g id="Layer_3">
</g>
<g id="Layer_2" class="st5">
</g>
</svg>
