<?xml version="1.0" encoding="utf-8"?>
<!-- Generator: Adobe Illustrator 25.1.0, SVG Export Plug-In . SVG Version: 6.00 Build 0)  -->
<svg version="1.1" xmlns="http://www.w3.org/2000/svg" xmlns:xlink="http://www.w3.org/1999/xlink" x="0px" y="0px"
	 viewBox="0 0 510.24 283.46" style="enable-background:new 0 0 510.24 283.46;" xml:space="preserve">
<style type="text/css">
	.st0{fill:#414042;}
	.st1{fill:#FFFFFF;}
	.st2{fill:#D1D3D4;}
	.st3{fill:#BE1E2D;}
	.st4{fill:#90101C;}
	.st5{display:none;}
	.st6{display:inline;}
	.st7{fill:#FFF200;}
</style>
<g id="Layer_1">
	<g>
		<g>
			<g>
				<polygon class="st0" points="286.23,48.67 254.51,77.41 202.45,77.41 188.85,48.67 				"/>
			</g>
			<g>
				<path class="st0" d="M321.39,48.67l-13.6,28.74h-36.65c-4.45,0-8.57,2.6-10.47,6.62L233.1,142.2l-15.89-33.58l17.48-36.89
					c6.64-14.01,20.95-23.06,36.45-23.06H321.39z"/>
			</g>
			<path class="st3" d="M305.85,81.52l-13.61,28.74c-7.9,0-15.43,3.35-20.74,9.22l-0.54,0.59l-31.7,35v0.02l-0.05,0.05l13.3-28.1
				l7.93-16.77l5.63-11.85c4.85-10.26,15.32-16.88,26.67-16.88H305.85z"/>
			<path class="st4" d="M280.71,112.74c-3.48,1.57-6.6,3.86-9.22,6.73l-0.53,0.59l-17.89,19.77l-13.8,15.23v0.02l-0.06,0.04
				l10.14-21.41c0,0,0-0.02,0.02-0.06l0.2-0.43c0.06-0.12,0.12-0.27,0.2-0.41c0.06-0.12,0.14-0.27,0.2-0.41
				C252.42,127.85,261.78,112.93,280.71,112.74z"/>
			<path class="st3" d="M287.73,119.82l-13.6,28.74c-7.9,0-15.42,3.34-20.73,9.21l-8.49,9.38l-5.68-11.99l0.04-0.09l3.08-6.5
				l5.62-11.86c4.33-9.13,13.1-15.39,22.99-16.64c1.21-0.16,2.44-0.24,3.68-0.24H287.73z"/>
			<path d="M234.7,71.73l-2.7,5.68l-10.53,0c0,0,4.76-28.13,48.23-28.72C254.75,49.25,241.14,58.14,234.7,71.73z"/>
		</g>
		<g>
			<path class="st0" d="M82.29,188.81l-4.99,10.56h14.68l-6.83,35.29h12.56l6.82-35.29h11.75l4.99-10.56H82.29z"/>
			<path class="st0" d="M137.71,219.72h-6.31l-2.9,14.94h-11.78l8.95-45.84h16.81c2.62,0,4.97,0.24,7.05,0.71
				c2.08,0.47,3.86,1.21,5.34,2.22c1.48,1.01,2.62,2.3,3.41,3.86c0.79,1.57,1.19,3.47,1.19,5.7c0,0.56-0.02,1.16-0.06,1.8
				c-0.04,0.64-0.13,1.29-0.26,1.93c-0.6,3.61-1.83,6.42-3.7,8.44s-4.11,3.5-6.73,4.44l6.44,16.74h-12.68L137.71,219.72z
				 M133.34,209.87h5.86c1.33,0,2.47-0.07,3.41-0.22s1.72-0.41,2.32-0.77c0.6-0.36,1.07-0.86,1.42-1.48
				c0.34-0.62,0.62-1.43,0.84-2.41c0.13-0.77,0.19-1.46,0.19-2.06c0-1.55-0.49-2.62-1.48-3.22c-0.99-0.6-2.51-0.9-4.57-0.9h-5.79
				L133.34,209.87z"/>
			<path class="st0" d="M189.03,224.62h-14.87l-4.96,10.04h-12.75l24.98-45.84h14.23l6.95,45.84h-12.49L189.03,224.62z
				 M178.73,215.02h9.4l-1.61-15.32L178.73,215.02z"/>
			<path class="st0" d="M223.22,208.39l-5.09,26.27h-11.78l8.95-45.84h9.85l12.94,26.59l5.15-26.59h11.65l-8.95,45.84h-10.04
				L223.22,208.39z"/>
			<path class="st0" d="M269.78,201.31c0.21-0.95,0.75-1.61,1.61-2c0.86-0.39,2.08-0.58,3.67-0.58c1.93,0,3.99,0.01,6.18,0.03
				c1.57,0.02,4.27,0.04,7.38,0.06l4.72-9.98c-2.45-0.02-4.54-0.05-5.57-0.06c-1.44-0.02-2.69-0.04-3.76-0.06
				c-1.08-0.02-2.07-0.03-3-0.03h-3.18c-2.67,0-5.14,0.18-7.44,0.54c-2.3,0.37-4.34,1.02-6.12,1.97c-1.78,0.94-3.27,2.22-4.47,3.83
				c-1.21,1.61-2.02,3.66-2.45,6.15c-0.26,1.37-0.39,2.64-0.39,3.8c0,1.24,0.18,2.4,0.52,3.47s0.9,2.04,1.68,2.94
				c0.01,0.01,0.02,0.02,0.03,0.03c0.36,0.41,0.78,0.81,1.26,1.19c0.55,0.44,1.18,0.86,1.89,1.25c1.31,0.73,2.93,1.4,4.86,2
				l5.54,1.67c1.07,0.35,1.88,0.74,2.41,1.19c0.54,0.45,0.81,1.09,0.81,1.9v0.49c0,0.15-0.02,0.33-0.07,0.54
				c-0.25,1.29-0.89,2.13-1.89,2.51c-1.01,0.39-2.59,0.58-4.74,0.58h-2.51c-1.03,0-2.19-0.01-3.48-0.03
				c-1.28-0.02-2.66-0.04-4.12-0.06c-0.88-0.01-1.79-0.02-3.44-0.03l-4.73,10c3.54,0.07,7.1,0.11,9.27,0.14
				c2.53,0.02,4.93,0.03,7.21,0.03c3.26,0,6.09-0.22,8.5-0.65c2.4-0.42,4.44-1.13,6.12-2.12c1.67-0.99,3-2.29,3.99-3.9
				c0.98-1.61,1.71-3.59,2.19-5.95c0.25-1.33,0.38-2.6,0.38-3.8c0-2.49-0.73-4.67-2.19-6.54c-1.46-1.86-4.05-3.38-7.79-4.54
				l-5.92-1.86c-1.07-0.35-1.86-0.72-2.35-1.13c-0.49-0.41-0.74-0.98-0.74-1.71c0-0.25,0.01-0.48,0.03-0.67
				C269.7,201.72,269.73,201.52,269.78,201.31z"/>
			<path class="st3" d="M299.85,188.81l-8.95,45.85H303l3.35-17.19h15.16l4.6-9.72h-17.89l1.74-8.89h17.97l4.74-10.02l0.01-0.03
				H299.85z"/>
			<path class="st3" d="M342.28,224.1l6.89-35.29h-12.56l-8.95,45.85h29.72l4.99-10.56H342.28z"/>
			<path class="st3" d="M376.66,234.66H364.1l8.95-45.84h12.56L376.66,234.66z"/>
			<path class="st3" d="M405.5,219.98l-12.04,14.68h-13.78l20.99-24.47l-9.66-21.38h13.26l5.09,12.81l9.79-12.81h13.78l-18.61,22.47
				l11.01,23.37h-13.78L405.5,219.98z"/>
		</g>
	</g>
</g>
<g id="Layer_3">
</g>
<g id="Layer_2" class="st5">
</g>
</svg>
